<svg xmlns="http://www.w3.org/2000/svg" width="46.686" height="45.534" viewBox="0 0 46.686 45.534">
  <defs>
    <style>
      .cls-1 {
        fill: #0f0c0d;
        fill-rule: evenodd;
        opacity: 0.8;
      }
    </style>
  </defs>
  <path id="Path_106" data-name="Path 106" class="cls-1" d="M159.661,107.44a23.346,23.346,0,0,0-7.377,45.494c1.168.214,1.593-.506,1.593-1.125,0-.555-.02-2.022-.032-3.971-6.493,1.411-7.863-3.128-7.863-3.128-1.062-2.7-2.592-3.415-2.592-3.415-2.119-1.449.16-1.419.16-1.419a4.9,4.9,0,0,1,3.575,2.4c2.082,3.568,5.464,2.538,6.794,1.94A4.99,4.99,0,0,1,155.4,141.1c-5.183-.589-10.633-2.591-10.633-11.537a9.024,9.024,0,0,1,2.4-6.264,8.387,8.387,0,0,1,.229-6.178s1.959-.628,6.418,2.393a22.137,22.137,0,0,1,11.688,0c4.457-3.021,6.413-2.393,6.413-2.393a8.388,8.388,0,0,1,.234,6.178,9.008,9.008,0,0,1,2.4,6.264c0,8.968-5.458,10.941-10.659,11.519a5.574,5.574,0,0,1,1.585,4.323c0,3.121-.029,5.639-.029,6.4,0,.623.421,1.35,1.6,1.122a23.347,23.347,0,0,0-7.394-45.491Z" transform="translate(-136.32 -107.44)"/>
</svg>
