<svg xmlns="http://www.w3.org/2000/svg" width="45.764" height="45.764" viewBox="0 0 45.764 45.764">
  <defs>
    <style>
      .cls-1 {
        opacity: 0.8;
      }
    </style>
  </defs>
  <path id="iconmonstr-linkedin-3" class="cls-1" d="M36.23,0H9.534A9.535,9.535,0,0,0,0,9.534v26.7a9.535,9.535,0,0,0,9.534,9.534h26.7a9.534,9.534,0,0,0,9.534-9.534V9.534A9.534,9.534,0,0,0,36.23,0ZM15.255,36.23H9.534V15.255h5.72Zm-2.86-23.393a3.364,3.364,0,1,1,3.337-3.364A3.351,3.351,0,0,1,12.394,12.837ZM38.136,36.23h-5.72V25.544c0-6.422-7.627-5.936-7.627,0V36.23h-5.72V15.255h5.72V18.62c2.662-4.931,13.348-5.3,13.348,4.721Z"/>
</svg>
