<svg xmlns="http://www.w3.org/2000/svg" width="585.213" height="410.728" viewBox="0 0 585.213 410.728">
  <defs>
    <style>
      .cls-1 {
        fill: #3f3d56;
      }

      .cls-2 {
        fill: #b7c3ff;
      }

      .cls-3 {
        fill: #2f2e41;
      }

      .cls-4, .cls-6, .cls-8 {
        opacity: 0.1;
      }

      .cls-5, .cls-6 {
        fill: #fab8c4;
      }

      .cls-7, .cls-8 {
        fill: #f85c81;
      }

      .cls-9 {
        fill: #f2f2f2;
      }

      .cls-10 {
        fill: #d0cde1;
      }

      .cls-11 {
        fill: #525260;
      }

      .cls-12 {
        fill: #6c63ff;
      }
    </style>
  </defs>
  <g id="Group_90" data-name="Group 90" transform="translate(0 0)">
    <path id="Path_238" data-name="Path 238" class="cls-1" d="M908.019,750.587c-3.8,14.465-17.109,23.5-17.109,23.5s-7.152-14.413-3.353-28.878,17.109-23.5,17.109-23.5S911.817,736.122,908.019,750.587Z" transform="translate(-438.056 -368.577)"/>
    <path id="Path_239" data-name="Path 239" class="cls-2" d="M905.6,759.531c-10.639,10.511-11.829,26.557-11.829,26.557s16.059-1,26.7-11.507S932.3,748.024,932.3,748.024,916.237,749.02,905.6,759.531Z" transform="translate(-441.397 -380.581)"/>
    <path id="Path_240" data-name="Path 240" class="cls-3" d="M191.7,654.832h20.036l49.374-19.32s35.063-14.311,32.2,12.88-7.871,63.686-7.871,63.686-15.743-7.156-24.329-5.009-2.862-43.65-2.862-43.65-70.126,33.632-76.566,29.338-7.871-34.348-7.871-34.348Z" transform="translate(-112.984 -327.541)"/>
    <path id="Path_241" data-name="Path 241" class="cls-4" d="M191.7,654.832h20.036l49.374-19.32s35.063-14.311,32.2,12.88-7.871,63.686-7.871,63.686-15.743-7.156-24.329-5.009-2.862-43.65-2.862-43.65-70.126,33.632-76.566,29.338-7.871-34.348-7.871-34.348Z" transform="translate(-112.984 -327.541)"/>
    <path id="Path_242" data-name="Path 242" class="cls-5" d="M249.673,558.82l24.248,34.838,56.53,47.228s52.237,12.165,45.081,20.752-50.806-8.587-50.806-8.587-65.117-47.228-67.264-50.806-25.76-37.21-25.76-37.21Z" transform="translate(-139.393 -294.275)"/>
    <path id="Path_243" data-name="Path 243" class="cls-6" d="M249.673,558.82l24.248,34.838,56.53,47.228s52.237,12.165,45.081,20.752-50.806-8.587-50.806-8.587-65.117-47.228-67.264-50.806-25.76-37.21-25.76-37.21Z" transform="translate(-139.393 -294.275)"/>
    <path id="Path_244" data-name="Path 244" class="cls-7" d="M218.475,507.092l15.743,30.77s-3.578,15.027-9.3,16.458-30.054-18.6-30.054-18.6Z" transform="translate(-122.588 -270.679)"/>
    <path id="Path_245" data-name="Path 245" class="cls-8" d="M218.475,507.092l15.743,30.77s-3.578,15.027-9.3,16.458-30.054-18.6-30.054-18.6Z" transform="translate(-122.588 -270.679)"/>
    <path id="Path_246" data-name="Path 246" class="cls-3" d="M573.2,644.132l4.65,19.183a1.2,1.2,0,0,1-.023.647l-21.094,65.92a1.2,1.2,0,0,1-2.332-.23l-2.918-25.68a1.2,1.2,0,0,1,.051-.507l19.362-59.423a1.2,1.2,0,0,1,2.3.089Z" transform="translate(-285.258 -332.773)"/>
    <path id="Path_247" data-name="Path 247" class="cls-9" d="M510.7,575.493l4.293,16.458-18.6,60.108-4.293-18.6Z" transform="translate(-224.471 -262.513)"/>
    <path id="Path_248" data-name="Path 248" class="cls-3" d="M415.813,784.741c.716,2.147,74.419-.716,75.135-1.431a15.538,15.538,0,0,0,1.574-2.862c.673-1.431,1.288-2.862,1.288-2.862l-2.862-23.17-72.988-2.59s-1.825,19.635-2.2,28.623A21.488,21.488,0,0,0,415.813,784.741Z" transform="translate(-223.324 -382.315)"/>
    <path id="Path_249" data-name="Path 249" class="cls-4" d="M449.183,689.965,450.614,710h-32.2V689.965Z" transform="translate(-190.861 -314.73)"/>
    <path id="Path_250" data-name="Path 250" class="cls-4" d="M383.072,701.774l.192-.038-.908,8.625H364.467v-8.587Z" transform="translate(-166.253 -320.1)"/>
    <path id="Path_251" data-name="Path 251" class="cls-4" d="M415.813,808.749c.716,2.147,74.419-.716,75.135-1.431a15.536,15.536,0,0,0,1.574-2.862H415.763A21.471,21.471,0,0,0,415.813,808.749Z" transform="translate(-223.324 -406.322)"/>
    <circle id="Ellipse_175" data-name="Ellipse 175" class="cls-5" cx="32.201" cy="32.201" r="32.201" transform="translate(74.42 161.994)"/>
    <path id="Path_252" data-name="Path 252" class="cls-5" d="M212.957,458.829s-10.734,18.6-12.88,28.623-32.2-20.036-32.2-20.036L163.94,457.04s28.265-13.238,26.118-23.972S212.957,458.829,212.957,458.829Z" transform="translate(-108.483 -236.011)"/>
    <path id="Path_253" data-name="Path 253" class="cls-5" d="M235.787,584.722l29.338,38.641L335.252,675.6s50.806,10.734,39.357,18.6-44.366-7.156-44.366-7.156-70.842-37.925-85.869-53.668-42.934-42.219-42.934-42.219Z" transform="translate(-125.588 -306.09)"/>
    <path id="Path_254" data-name="Path 254" class="cls-3" d="M138.812,691.506l8.587,13.6,51.247-16.123a40.294,40.294,0,0,1,33.548,4.047c8.945,5.635,14.669,14.58,1.789,27.818-25.761,26.476-42.934,12.165-42.934,12.165s-86.585,40.788-100.9,20.752-15.027-30.054-15.027-30.054S130.225,689.359,138.812,691.506Z" transform="translate(-67.97 -352.766)"/>
    <path id="Path_255" data-name="Path 255" class="cls-10" d="M326.573,776.685s22.9,15.027-4.293,22.183-47.228-2.862-47.228-2.862-23.614,0-23.614-12.165,7.871-13.6,7.871-13.6l24.329,3.578S312.977,765.952,326.573,776.685Z" transform="translate(-148.395 -390.717)"/>
    <path id="Path_256" data-name="Path 256" class="cls-3" d="M248.7,381.846c2.192.977,4.365,2.133,6.748,2.417s5.1-.548,6.224-2.667a8.371,8.371,0,0,0,.707-3.786c.086-3.929-.2-8.177-2.688-11.218-1.585-1.935-3.9-3.155-5.538-5.044a23.832,23.832,0,0,1-2.8-4.574c-3.19-5.992-7.914-11.75-14.478-13.477a31.4,31.4,0,0,0-8.451-.646l-16.531.233a28.78,28.78,0,0,0-7.953.856c-5.321,1.609-9.2,6.083-12.744,10.363a64.808,64.808,0,0,0-7.309,10.087,35.393,35.393,0,0,0-4.2,17.341,16.225,16.225,0,0,0,.594,4.589,25.464,25.464,0,0,0,1.8,3.962c3.1,6.089,4.941,13.7,1.45,19.569,6.065-2.477,12.066-5.726,16.066-10.914,1.79-2.321,3.193-5.038,5.579-6.741s6.272-1.851,7.8.649a6.992,6.992,0,0,1,.789,3.275,15.011,15.011,0,0,0,.9,5.528c.8,1.7,2.69,3.077,4.5,2.567,3.116-.878,2.817-5.659,5.217-7.831,1.822-1.65,4.634-1.334,6.975-2.083a10.352,10.352,0,0,0,5.941-5.851c.886-1.988.874-7.191,2.551-8.268C241.97,378.83,246.754,380.976,248.7,381.846Z" transform="translate(-115.667 -195.752)"/>
    <path id="Path_257" data-name="Path 257" class="cls-7" d="M114.869,472.321a8.492,8.492,0,0,1,4.42.011c4.593,1.233,14.891,4.5,17.1,9.465,2.862,6.44,12.88,16.458,12.88,16.458s13.6,13.6,10.734,22.9-13.6,20.036-13.6,20.036,2.862,44.366-11.449,55.815-20.036,3.578-20.036,14.311-44.366,44.365-52.953,23.614c0,0,4.293-38.641,2.862-52.237C63.42,569.294,65.485,485.691,114.869,472.321Z" transform="translate(-61.968 -254.687)"/>
    <path id="Path_258" data-name="Path 258" class="cls-7" d="M173.421,504.2s43.65,32.2,35.779,45.8c0,0-26.476,12.88-32.2,12.165s-27.907-25.761-33.632-27.907S134.78,493.466,173.421,504.2Z" transform="translate(-97.57 -268.502)"/>
    <circle id="Ellipse_176" data-name="Ellipse 176" class="cls-2" cx="35.35" cy="35.35" r="35.35" transform="translate(235.52 93.791)"/>
    <path id="Path_259" data-name="Path 259" class="cls-1" d="M930.745,190.659h-198.1V149.207h198.1Zm-197.224-.873h196.35V150.08H733.522Z" transform="translate(-367.902 -107.428)"/>
    <rect id="Rectangle_170" data-name="Rectangle 170" class="cls-11" width="197.223" height="40.579" transform="translate(351.221 50.069)"/>
    <circle id="Ellipse_177" data-name="Ellipse 177" class="cls-12" cx="3.054" cy="3.054" r="3.054" transform="translate(223.493 5.236)"/>
    <circle id="Ellipse_178" data-name="Ellipse 178" class="cls-12" cx="3.054" cy="3.054" r="3.054" transform="translate(233.965 5.236)"/>
    <circle id="Ellipse_179" data-name="Ellipse 179" class="cls-12" cx="3.054" cy="3.054" r="3.054" transform="translate(244.437 5.236)"/>
    <path id="Path_260" data-name="Path 260" class="cls-1" d="M829.878,311.5H462.487V72.386H829.88Zm-366.52-.873H829.006V73.259H463.36Z" transform="translate(-244.666 -72.386)"/>
    <rect id="Rectangle_171" data-name="Rectangle 171" class="cls-1" width="366.52" height="0.873" transform="translate(218.257 13.236)"/>
    <path id="Path_261" data-name="Path 261" class="cls-1" d="M477.21,85.786A3.491,3.491,0,1,1,480.7,82.3a3.491,3.491,0,0,1-3.491,3.491Zm0-6.109a2.618,2.618,0,1,0,2.618,2.618,2.618,2.618,0,0,0-2.618-2.618Z" transform="translate(-249.79 -75.314)"/>
    <path id="Path_262" data-name="Path 262" class="cls-1" d="M496.465,85.786a3.491,3.491,0,1,1,3.491-3.491,3.491,3.491,0,0,1-3.491,3.491Zm0-6.109a2.618,2.618,0,1,0,2.618,2.618,2.618,2.618,0,0,0-2.618-2.618Z" transform="translate(-258.573 -75.314)"/>
    <path id="Path_263" data-name="Path 263" class="cls-1" d="M515.721,85.786a3.491,3.491,0,1,1,3.49-3.491,3.491,3.491,0,0,1-3.49,3.491Zm0-6.109a2.618,2.618,0,1,0,2.618,2.618,2.618,2.618,0,0,0-2.618-2.618Z" transform="translate(-267.357 -75.314)"/>
    <rect id="Rectangle_172" data-name="Rectangle 172" class="cls-1" width="0.873" height="225.34" transform="translate(332.893 13.672)"/>
    <rect id="Rectangle_173" data-name="Rectangle 173" class="cls-9" width="64.141" height="8.727" transform="translate(374.565 124.464)"/>
    <rect id="Rectangle_174" data-name="Rectangle 174" class="cls-9" width="64.141" height="8.727" transform="translate(475.358 124.464)"/>
    <path id="Path_264" data-name="Path 264" class="cls-1" d="M821.331,302.019H756.317v-9.6h65.014Zm-64.141-.873h63.269v-7.854H757.19Z" transform="translate(-378.698 -172.755)"/>
    <rect id="Rectangle_175" data-name="Rectangle 175" class="cls-9" width="64.141" height="8.727" transform="translate(374.565 192.096)"/>
    <path id="Path_265" data-name="Path 265" class="cls-1" d="M821.331,426.377H756.317v-9.6h65.014Zm-64.141-.873h63.269V417.65H757.19Z" transform="translate(-378.698 -229.482)"/>
    <rect id="Rectangle_176" data-name="Rectangle 176" class="cls-9" width="164.934" height="8.727" transform="translate(374.783 157.407)"/>
    <path id="Path_266" data-name="Path 266" class="cls-1" d="M922.527,364.2H756.718v-9.6H922.525Zm-164.936-.872H921.652v-7.854H757.591Z" transform="translate(-378.881 -201.119)"/>
    <path id="Path_267" data-name="Path 267" class="cls-1" d="M1006.662,302.019H941.651v-9.6h65.011Zm-64.141-.873h63.268v-7.854H942.523Z" transform="translate(-463.239 -172.755)"/>
    <path id="Path_268" data-name="Path 268" class="cls-1" d="M540.926,297.632a35.894,35.894,0,1,1,35.894-35.894,35.894,35.894,0,0,1-35.894,35.894Zm0-70.7a34.806,34.806,0,1,0,34.806,34.806,34.806,34.806,0,0,0-34.806-34.806Z" transform="translate(-264.073 -142.387)"/>
    <rect id="Rectangle_177" data-name="Rectangle 177" class="cls-1" width="153.908" height="1.088" transform="translate(406.832 404.871)"/>
  </g>
</svg>
