<svg xmlns="http://www.w3.org/2000/svg" width="30.192" height="30.035" viewBox="0 0 30.192 30.035">
  <g id="python-seeklogo.com" transform="translate(-0.145 -0.072)">
    <path id="Path_198" data-name="Path 198" d="M15.132.072C7.467.072,7.946,3.4,7.946,3.4L7.954,6.84h7.314V7.874H5.049s-4.9-.556-4.9,7.177,4.281,7.46,4.281,7.46H6.98V18.922s-.138-4.281,4.213-4.281h7.254s4.076.066,4.076-3.939V4.08S23.142.072,15.132.072ZM11.1,2.388A1.316,1.316,0,1,1,9.783,3.7,1.315,1.315,0,0,1,11.1,2.388Z" transform="translate(0 0)"/>
    <path id="Path_199" data-name="Path 199" d="M73.547,86.76c7.665,0,7.186-3.324,7.186-3.324l-.009-3.443H73.41V78.959H83.63s4.9.556,4.9-7.178-4.281-7.459-4.281-7.459H81.7V67.91s.138,4.281-4.213,4.281H70.232s-4.076-.066-4.076,3.939v6.622s-.619,4.007,7.391,4.007Zm4.033-2.316A1.316,1.316,0,1,1,78.9,83.129a1.315,1.315,0,0,1-1.316,1.316Z" transform="translate(-58.198 -56.653)"/>
  </g>
</svg>
